<svg xmlns="http://www.w3.org/2000/svg" version="1.0" width="1024.000000pt" height="1024.000000pt"
     viewBox="-3 -3 1030 1030" preserveAspectRatio="xMidYMid meet" transform="matrix(1, 0, 0, 1, 0, 0)">
    <g id="deeditor_bgCarrier" stroke-width="0">
        <rect id="dee_c_e" x="-3" y="-3" width="1030" height="1030" rx="38.4" fill="#d3ffff" strokewidth="0"/>
    </g>

    <g transform="translate(0.000000,1024.000000) scale(0.100000,-0.100000)" fill="#673ab7" stroke="none">
        <path d="M3913 9496 c-65 -21 -124 -59 -175 -114 -74 -79 -104 -151 -116 -278 l-7 -79 -320 -5 -320 -5 -53 -29 c-94 -52 -136 -124 -148 -249 l-7 -77 -461 0 c-513 0 -520 -1 -656 -67 -55 -27 -95 -56 -151 -112 -90 -90 -142 -178 -169 -287 -20 -78 -20 -111 -18 -3064 l3 -2985 27 -73 c72 -193 205 -327 396 -400 63 -24 80 -26 279 -30 116 -2 218 0 227 5 33 18 206 226 206 248 0 51 -14 54 -310 57 -269 3 -276 4 -325 28 -70 34 -139 108 -164 175 l-21 56 2 2952 3 2952 27 50 c33 63 88 118 147 147 46 23 48 23 505 23 l459 0 -2 -70 c-7 -235 81 -394 267 -483 l77 -37 1249 -3 c1369 -3 1301 -5 1406 56 60 34 136 107 166 157 45 77 57 126 63 255 l6 125 445 0 c436 0 446 0 492 -22 66 -30 132 -102 157 -169 18 -47 21 -78 21 -212 0 -178 9 -224 53 -269 77 -81 203 -61 251 40 22 48 23 381 0 477 -47 204 -207 376 -417 453 -60 21 -77 22 -532 27 l-470 5 -6 75 c-10 117 -56 193 -151 245 l-53 30 -315 5 -315 5 -7 70 c-16 175 -106 307 -257 379 l-66 31 -440 2 c-344 2 -449 -1 -482 -11z m-240 -1433 c-7 -2 -19 -2 -25 0 -7 3 -2 5 12 5 14 0 19 -2 13 -5z m450 0 c-7 -2 -21 -2 -30 0 -10 3 -4 5 12 5 17 0 24 -2 18 -5z m220 0 c-7 -2 -21 -2 -30 0 -10 3 -4 5 12 5 17 0 24 -2 18 -5z m60 0 c-7 -2 -19 -2 -25 0 -7 3 -2 5 12 5 14 0 19 -2 13 -5z m244 1 c-3 -3 -12 -4 -19 -1 -8 3 -5 6 6 6 11 1 17 -2 13 -5z m150 0 c-3 -3 -12 -4 -19 -1 -8 3 -5 6 6 6 11 1 17 -2 13 -5z"
              fill="#673ab7"/>
        <path d="M8287 8836 c-28 -26 -29 -27 -52 -159 -23 -127 -49 -189 -106 -252 -61 -66 -140 -107 -269 -140 -110 -28 -140 -51 -140 -106 0 -50 40 -84 117 -99 193 -38 298 -108 355 -236 11 -26 31 -100 44 -163 13 -65 32 -127 42 -141 39 -51 106 -51 143 0 10 14 29 76 43 138 14 63 36 138 50 167 53 116 159 193 316 230 119 28 150 51 150 109 0 49 -46 82 -153 110 -242 63 -320 147 -370 401 -21 101 -28 122 -51 142 -36 31 -85 30 -119 -1z"
              fill="#673ab7"/>
        <path d="M6856 7698 c-21 -18 -30 -43 -45 -121 -36 -179 -96 -241 -283 -291 -76 -20 -101 -42 -100 -88 1 -44 28 -66 102 -84 181 -45 251 -118 285 -300 21 -108 40 -134 98 -134 49 0 67 28 88 134 23 115 43 157 96 207 48 46 102 74 187 95 46 11 73 24 86 42 24 30 25 44 5 81 -11 23 -26 32 -67 41 -96 23 -161 52 -206 93 -56 52 -79 98 -98 195 -19 97 -32 130 -55 142 -30 16 -66 11 -93 -12z"
              fill="#673ab7"/>
        <path d="M9020 7532 c-16 -16 -33 -49 -39 -73 -43 -173 -63 -198 -195 -248 -88 -33 -106 -49 -106 -94 0 -40 30 -65 110 -92 135 -46 164 -78 196 -222 17 -80 45 -113 94 -113 49 0 76 32 100 122 41 154 67 183 192 213 79 20 114 51 103 95 -10 39 -23 49 -110 89 -136 63 -168 104 -196 245 -20 103 -88 138 -149 78z"
              fill="#673ab7"/>
        <path d="M2503 7330 c-92 -19 -172 -80 -214 -166 l-24 -49 -3 -1995 c-2 -2203 -7 -2053 61 -2142 45 -59 113 -102 182 -116 39 -8 194 -12 458 -12 l399 0 531 523 c292 287 777 766 1077 1064 300 298 675 669 833 825 l288 283 -3 775 -3 775 -29 63 c-32 70 -86 124 -155 156 l-46 21 -1655 1 c-910 1 -1674 -2 -1697 -6z"
              fill="#673ab7"/>
        <path d="M8090 7049 c-14 -5 -218 -202 -455 -437 -374 -372 -810 -800 -1490 -1462 -231 -224 -627 -614 -1175 -1155 -239 -237 -570 -560 -735 -720 -165 -159 -641 -624 -1057 -1033 -858 -842 -818 -795 -826 -956 -7 -140 33 -240 133 -335 80 -75 148 -104 261 -109 175 -8 255 37 428 243 1022 1219 1808 2110 3231 3665 383 419 479 524 679 745 427 473 664 728 998 1076 120 124 222 238 228 253 28 76 3 161 -62 209 -31 23 -119 32 -158 16z"
              fill="#673ab7"/>
        <path d="M8682 6310 c-39 -24 -45 -38 -66 -161 -49 -291 -161 -401 -464 -460 -79 -15 -122 -51 -122 -101 0 -37 20 -72 50 -88 11 -6 70 -23 133 -39 185 -47 275 -106 334 -218 40 -75 48 -104 72 -243 18 -103 23 -118 51 -142 36 -33 72 -36 117 -8 36 21 34 16 67 183 14 65 38 146 55 182 60 129 177 210 372 259 53 13 105 29 117 35 31 17 55 67 47 100 -11 51 -45 71 -178 105 -158 41 -224 75 -292 148 -62 67 -86 123 -116 276 -25 126 -39 156 -79 177 -39 20 -58 19 -98 -5z"
              fill="#673ab7"/>
        <path d="M7230 5193 c-34 -14 -71 -46 -88 -76 -16 -30 -17 -131 -22 -1487 l-5 -1455 -23 -43 c-35 -66 -88 -119 -150 -149 l-57 -28 -1265 -5 c-1193 -5 -1267 -6 -1298 -23 -97 -53 -96 -189 1 -261 l28 -21 1292 0 c1237 0 1294 1 1347 19 210 71 355 216 426 426 18 53 19 115 19 1532 0 1476 0 1477 -21 1504 -34 46 -69 67 -121 70 -26 2 -55 1 -63 -3z"
              fill="#673ab7"/>
        <path d="M8100 4799 c-60 -25 -100 -85 -100 -149 0 -161 195 -220 292 -90 48 65 27 171 -43 217 -43 28 -111 38 -149 22z"
              fill="#673ab7"/>
        <path d="M5738 3583 c-150 -164 -338 -367 -418 -452 -198 -210 -203 -217 -196 -246 4 -14 16 -27 29 -30 13 -4 174 -5 358 -3 l334 3 56 26 c71 33 125 87 158 158 l26 56 3 368 c3 323 1 372 -13 393 -34 53 -47 42 -337 -273z"
              fill="#673ab7"/>
    </g>
</svg>